# xmcd
#
# Track frame offsets: 
#        150
#        12670
#        29367
#        43956
#        66492
#        81777
#        94646
#        105762
#        118051
#        135828
#        145184
#        161848
#        177481
#
# Disc length: 2961 seconds
#
# Revision: 0
# Processed by: cddbd v1.5.2PL0 Copyright (c) Steve Scherf et al.
# Submitted via: ExactAudioCopy v1.0b3
#
DISCID=af0b8f0d
DTITLE=Crankshaft and The Gear Grinders - Junkyard Rhythm
DYEAR=2011
DGENRE=Blues
TTITLE0=Junkyard Rhythm
TTITLE1=Leavin' This Town
TTITLE2=Scrap Collectin' Man
TTITLE3=The Curse
TTITLE4=Prayin' For Snow
TTITLE5=Neighbor Boys
TTITLE6=I'm A Chain Saw
TTITLE7=Motorcycle Woman
TTITLE8=Phantom Ring
TTITLE9=Overheatin'
TTITLE10=327
TTITLE11=Solid Gone
TTITLE12=Ode To The '59
EXTD=
EXTT0=
EXTT1=
EXTT2=
EXTT3=
EXTT4=
EXTT5=
EXTT6=
EXTT7=
EXTT8=
EXTT9=
EXTT10=
EXTT11=
EXTT12=
PLAYORDER=
